<svg xmlns="http://www.w3.org/2000/svg" viewBox="0 0 48 32" fill="none">
  <rect width="48" height="32" rx="4" fill="#fff"/>
  <path d="M18.3 9h-4.8c-.3 0-.6.2-.7.5l-2 12.7c0 .3.1.5.4.5h2.4c.3 0 .6-.2.7-.5l.5-3.4c0-.3.4-.5.7-.5h1.6c3.3 0 5.2-1.6 5.7-4.8.2-1.4 0-2.5-.7-3.3-.8-.8-2.1-1.2-3.8-1.2zm.6 4.7c-.3 1.7-1.5 1.7-2.7 1.7h-.7l.5-3c0-.2.2-.3.4-.3h.3c.8 0 1.6 0 2 .5.2.2.3.5.2 1.1zm11.4 0h-2.4c-.2 0-.4.1-.4.3l-.1.6-.2-.3c-.5-.7-1.6-1-2.7-1-2.5 0-4.7 1.9-5.1 4.6-.2 1.4.1 2.7.8 3.5.7.8 1.7 1.1 2.9 1.1 2.1 0 3.2-1.3 3.2-1.3l-.1.6c0 .3.1.5.4.5h2.2c.3 0 .6-.2.7-.5l1.2-7.6c0-.3-.2-.5-.4-.5zm-3.3 4.7c-.2 1.3-1.2 2.2-2.5 2.2-.6 0-1.1-.2-1.5-.6-.3-.4-.5-.9-.4-1.5.2-1.3 1.2-2.2 2.5-2.2.6 0 1.1.2 1.4.6.4.4.6.9.5 1.5z" fill="#003087"/>
  <path d="M36.6 13.7h-2.4c-.2 0-.4.1-.5.3l-2.9 4.2-1.2-4c-.1-.3-.4-.5-.7-.5h-2.3c-.3 0-.5.3-.4.6l2.3 6.7-2.2 3c-.2.3 0 .7.3.7h2.4c.2 0 .4-.1.5-.3l7-10.1c.2-.3 0-.6-.3-.6z" fill="#009cde"/>
</svg>
