<svg xmlns="http://www.w3.org/2000/svg" viewBox="0 0 48 32" fill="none">
  <rect width="48" height="32" rx="4" fill="#1A1F71"/>
  <path d="M20.4 22h-3.2l2-12h3.2l-2 12zm-5.6-12l-3 8.2-.4-1.6-.6-3.2c-.2-1-.8-1.4-1.6-1.4H4.8l-.1.4c1 .2 2.2.6 3 1l2.5 9.6h3.4l5.2-12H15.8zm22 12h3l-2.6-12h-2.8c-.6 0-1.1.4-1.3.9l-4.6 11.1h3.4l.7-1.8h4.2l.4 1.8zm-3.6-4.4l1.7-4.8.9 4.8h-2.6zm-7.4-5l.4-2.3c-1-.4-2.1-.6-3.2-.6-2.2 0-3.7 1.1-3.7 2.7 0 1.2.9 1.8 2 2.2 1 .4 1.4.6 1.4 1 0 .6-.8.9-1.5.9-1 0-2-.3-2.6-.6l-.4 2.4c.7.3 1.8.5 3 .5 2.4 0 3.9-1.1 3.9-2.8 0-.9-.6-1.6-2-2.2-.9-.4-1.4-.6-1.4-1 0-.4.4-.7 1.4-.7.8 0 1.6.2 2.1.4z" fill="white"/>
</svg>
